<?xml version="1.0" standalone="no"?>
<!DOCTYPE svg PUBLIC "-//W3C//DTD SVG 20010904//EN"
 "http://www.w3.org/TR/2001/REC-SVG-20010904/DTD/svg10.dtd">
<svg version="1.0" xmlns="http://www.w3.org/2000/svg"
 width="640.000000pt" height="640.000000pt" viewBox="0 0 640.000000 640.000000"
 preserveAspectRatio="xMidYMid meet">
<metadata>
Created by potrace 1.16, written by Peter Selinger 2001-2019
</metadata>
<g transform="translate(0.000000,640.000000) scale(0.100000,-0.100000)"
fill="#000000" stroke="none">
<path d="M0 3200 l0 -3200 3200 0 3200 0 0 3200 0 3200 -3200 0 -3200 0 0
-3200z m3310 3070 c311 -19 605 -79 863 -176 168 -63 439 -198 577 -286 472
-303 832 -702 1079 -1196 157 -313 268 -694 300 -1026 15 -153 13 -538 -3
-676 -98 -820 -542 -1578 -1207 -2065 -270 -196 -549 -339 -856 -438 -476
-154 -982 -187 -1468 -96 -283 52 -485 118 -745 241 -499 237 -913 598 -1225
1068 -236 356 -396 770 -460 1190 -38 242 -38 672 0 913 95 619 383 1196 825
1651 472 486 1132 810 1798 881 236 25 313 27 522 15z"/>
<path d="M2863 5880 c-160 -24 -220 -247 -95 -352 68 -57 178 -63 250 -15 45
29 92 113 92 161 0 135 -111 227 -247 206z m104 -105 c28 -18 47 -77 39 -120
-13 -66 -98 -106 -157 -75 -52 28 -65 129 -24 179 37 43 91 49 142 16z"/>
<path d="M3175 5881 c-3 -6 -8 -74 -11 -153 -5 -133 -4 -145 15 -176 53 -84
200 -95 268 -21 34 37 41 67 49 206 l7 130 -38 7 c-22 5 -42 3 -48 -3 -6 -6
-14 -61 -18 -123 -10 -141 -13 -151 -43 -167 -31 -17 -71 -7 -91 23 -13 19
-14 42 -6 142 4 65 6 125 4 132 -6 14 -79 17 -88 3z"/>
<path d="M3576 5844 c-3 -8 -6 -26 -6 -39 0 -19 7 -24 41 -30 22 -4 43 -13 46
-21 3 -7 -7 -74 -22 -149 -15 -74 -25 -141 -22 -149 7 -17 75 -26 86 -12 4 6
16 52 25 101 9 50 22 114 27 143 l11 53 52 -6 53 -7 7 33 c4 19 2 35 -4 39 -6
4 -66 17 -133 29 -67 12 -129 24 -138 27 -9 3 -19 -2 -23 -12z"/>
<path d="M2565 5836 c-40 -11 -40 -12 -59 -89 -10 -42 -22 -77 -26 -77 -9 0
-53 48 -86 94 -19 26 -24 28 -63 21 -23 -4 -45 -13 -48 -21 -3 -7 32 -56 80
-111 96 -111 102 -122 112 -181 8 -49 20 -57 71 -47 33 6 36 9 30 33 -20 90
-18 128 13 238 31 109 38 155 24 153 -5 0 -26 -6 -48 -13z"/>
<path d="M3950 5777 c0 -1 -27 -83 -60 -181 -33 -98 -58 -182 -55 -186 9 -14
76 -33 85 -24 4 5 15 34 25 64 26 81 27 82 93 59 31 -11 60 -23 64 -27 5 -5
-1 -35 -12 -67 -11 -32 -20 -64 -20 -71 0 -16 70 -48 81 -37 5 5 20 44 35 88
15 44 40 117 55 163 38 108 37 118 -6 132 -19 6 -39 9 -44 5 -6 -3 -18 -31
-28 -61 -9 -31 -24 -59 -31 -62 -16 -6 -119 24 -127 37 -2 5 4 35 15 66 11 32
20 62 20 67 0 5 -16 16 -35 24 -32 13 -55 18 -55 11z"/>
<path d="M1933 5648 c-13 -6 -23 -20 -23 -32 0 -30 125 -339 139 -344 13 -4
167 54 188 70 8 7 9 17 1 39 -5 16 -13 29 -16 29 -4 0 -30 -9 -59 -20 -39 -15
-54 -17 -59 -8 -5 7 -31 71 -59 143 -55 137 -64 147 -112 123z"/>
<path d="M1647 5507 c-37 -21 -39 -24 -32 -62 3 -22 17 -111 30 -197 13 -86
26 -162 30 -168 4 -7 20 -3 47 12 38 22 40 25 34 60 -6 38 -6 38 54 68 70 35
80 36 103 10 17 -20 33 -19 75 8 21 13 31 42 15 42 -5 0 -31 22 -59 48 -139
129 -226 202 -242 202 -9 0 -34 -10 -55 -23z"/>
<path d="M4503 5521 c-78 -20 -153 -121 -153 -206 0 -57 37 -124 88 -159 59
-41 154 -49 206 -16 20 12 36 25 36 30 0 4 -16 18 -36 29 -29 17 -45 20 -84
15 -45 -6 -51 -4 -80 24 -23 23 -30 40 -30 68 0 40 31 98 60 114 53 28 133 -3
145 -58 6 -29 77 -78 95 -67 24 15 1 110 -37 155 -48 58 -140 88 -210 71z"/>
<path d="M1370 5333 c-30 -12 -170 -115 -170 -124 0 -20 215 -308 230 -309 8
0 28 11 45 24 l29 24 -29 41 c-17 23 -34 48 -39 56 -7 10 4 26 41 62 28 26 55
61 59 77 9 38 -15 104 -48 129 -26 19 -92 31 -118 20z"/>
<path d="M4770 5195 c-58 -80 -106 -152 -108 -159 -2 -9 32 -40 80 -76 l83
-61 24 28 24 27 -39 33 c-22 18 -42 33 -46 33 -20 0 -1 34 77 140 47 63 85
122 85 131 0 18 -40 49 -62 49 -8 0 -61 -65 -118 -145z"/>
<path d="M2868 5234 c-588 -80 -1129 -443 -1436 -963 -117 -199 -203 -432
-245 -666 -26 -147 -31 -486 -8 -625 83 -526 343 -965 766 -1295 346 -270 830
-422 1280 -402 508 23 959 221 1316 577 206 205 343 410 444 660 157 389 187
830 84 1235 -70 277 -206 546 -386 766 -73 89 -245 257 -328 320 -219 168
-464 285 -738 355 -205 52 -527 69 -749 38z m261 -660 c10 -18 14 -16 49 24
21 23 43 42 49 42 6 0 16 -23 23 -50 7 -28 16 -52 20 -55 4 -3 28 6 52 20 66
38 71 35 63 -37 l-7 -61 59 6 c33 4 63 4 66 1 3 -4 -8 -30 -24 -60 -29 -50
-29 -54 -12 -60 54 -18 70 -23 88 -29 18 -6 15 -11 -30 -51 -48 -43 -49 -45
-31 -59 26 -20 25 -20 79 15 64 43 156 144 202 223 22 37 43 67 47 67 29 0
-16 -191 -69 -293 -54 -103 -181 -229 -288 -284 -118 -61 -188 -77 -330 -77
-104 0 -130 4 -200 28 -225 77 -399 261 -456 484 -19 77 -25 142 -11 142 4 0
23 -28 42 -62 40 -71 156 -199 214 -235 32 -21 43 -23 62 -14 13 6 24 14 24
19 0 4 -20 25 -45 46 -49 40 -50 50 -8 59 16 3 41 10 56 16 l28 11 -30 53
c-17 30 -28 56 -25 59 3 4 33 4 66 0 l60 -5 -7 62 c-8 71 -2 75 60 36 22 -13
43 -25 47 -25 4 0 14 23 22 50 22 75 26 77 57 43 15 -17 32 -39 38 -49z m81
-1464 c24 -58 48 -110 54 -117 9 -10 35 6 115 67 57 44 110 80 118 80 17 0 16
-20 -2 -160 -8 -62 -13 -116 -10 -118 2 -3 56 0 118 7 136 13 167 14 167 2 0
-5 -36 -57 -80 -116 -44 -59 -78 -111 -75 -115 3 -4 56 -29 117 -55 118 -49
141 -62 133 -75 -2 -4 -55 -29 -117 -55 -62 -27 -119 -53 -126 -60 -10 -9 4
-33 68 -117 44 -58 80 -111 80 -118 0 -13 -17 -13 -189 10 -46 6 -88 7 -92 3
-5 -5 -2 -58 6 -118 17 -127 18 -165 6 -165 -5 0 -57 36 -116 80 -60 44 -112
79 -118 77 -5 -1 -33 -59 -61 -127 -28 -69 -56 -125 -61 -125 -5 0 -34 57 -64
128 -31 70 -60 127 -66 127 -5 0 -57 -36 -114 -80 -58 -44 -108 -80 -113 -80
-11 0 -9 47 6 170 7 58 10 108 7 113 -4 4 -54 2 -112 -5 -136 -15 -164 -16
-164 -1 0 12 69 111 108 156 10 12 25 33 32 47 l13 26 -126 54 c-69 31 -127
60 -129 66 -2 7 51 35 122 64 69 29 128 56 130 61 3 4 -31 55 -75 115 -44 59
-80 111 -80 115 0 14 24 15 143 1 65 -7 125 -11 131 -9 10 4 9 34 -2 131 -8
70 -11 134 -8 142 7 19 -5 26 132 -78 49 -38 94 -68 100 -68 11 0 42 62 84
170 28 72 39 85 56 68 7 -7 31 -60 54 -118z"/>
<path d="M5025 5074 c-119 -132 -133 -170 -94 -250 40 -83 146 -127 217 -90
27 14 133 118 187 184 l28 33 -29 30 c-15 16 -33 29 -39 29 -6 0 -44 -39 -85
-86 -41 -47 -87 -92 -102 -100 -46 -24 -98 10 -98 65 0 12 38 64 91 123 l92
102 -32 28 c-17 15 -35 28 -40 28 -5 0 -48 -43 -96 -96z"/>
<path d="M1042 5079 c-44 -41 -82 -79 -85 -85 -6 -12 241 -292 258 -293 6 0
48 35 94 78 l84 78 -19 26 c-10 15 -23 27 -28 27 -5 0 -28 -18 -52 -40 -49
-45 -63 -48 -87 -22 -25 28 -21 48 18 79 40 32 44 52 15 78 -19 17 -21 17 -60
-19 -45 -41 -60 -44 -83 -18 -25 27 -21 37 28 78 25 20 45 42 45 48 0 7 -11
23 -24 35 l-25 23 -79 -73z"/>
<path d="M844 4879 l-29 -30 30 -27 c17 -15 55 -48 85 -74 30 -25 53 -49 50
-51 -3 -2 -63 2 -134 10 l-129 14 -28 -27 c-37 -35 -36 -55 0 -82 16 -12 79
-64 140 -117 60 -52 114 -95 120 -95 5 0 21 14 36 32 l27 32 -34 31 c-18 16
-56 49 -83 72 -27 23 -46 45 -43 48 3 3 63 -1 133 -10 l128 -16 29 28 c38 36
35 54 -14 93 -24 19 -87 71 -140 117 -53 46 -101 83 -105 83 -5 0 -22 -14 -39
-31z"/>
<path d="M5289 4759 c-74 -61 -140 -117 -148 -124 -12 -12 -3 -27 59 -100 40
-47 86 -93 103 -101 62 -33 134 9 144 84 5 39 7 40 37 35 25 -4 39 1 63 21 39
33 49 73 30 117 -15 36 -132 179 -146 179 -4 0 -68 -50 -142 -111z"/>
<path d="M536 3319 c-3 -17 -6 -42 -6 -55 0 -17 -12 -29 -50 -50 -27 -15 -50
-31 -50 -35 0 -4 21 -15 46 -25 48 -18 64 -41 64 -94 0 -45 19 -46 57 -5 34
37 35 38 94 32 32 -3 59 -3 59 -1 0 3 -9 22 -20 44 -25 49 -25 71 1 121 l20
41 -63 -7 c-63 -7 -63 -6 -97 29 -19 20 -38 36 -42 36 -3 0 -9 -14 -13 -31z"/>
<path d="M5697 3314 c-38 -35 -40 -36 -98 -29 -32 4 -59 4 -59 1 0 -4 9 -24
20 -46 25 -49 25 -61 0 -102 -30 -50 -27 -55 38 -50 55 4 58 2 91 -32 19 -20
38 -36 42 -36 4 0 10 17 13 38 12 65 17 72 68 98 27 14 48 27 46 30 -3 2 -24
14 -48 27 -46 24 -57 44 -59 105 -1 17 -4 32 -8 32 -5 0 -25 -17 -46 -36z"/>
<path d="M430 2816 c0 -80 0 -79 -84 -139 -14 -10 -26 -22 -26 -27 0 -5 31
-19 70 -31 l69 -21 23 -69 c12 -38 25 -69 28 -69 4 0 28 27 53 60 l47 60 70 0
c38 0 70 4 70 8 0 5 -18 33 -40 62 -22 29 -40 57 -40 60 0 4 9 33 20 65 11 32
20 62 20 67 0 14 -35 9 -88 -13 l-51 -21 -33 20 c-19 12 -45 30 -57 42 -43 36
-51 27 -51 -54z"/>
<path d="M5780 2850 c-29 -22 -56 -40 -60 -40 -3 0 -35 11 -70 25 -35 14 -66
23 -68 20 -3 -3 4 -36 15 -74 22 -75 21 -77 -29 -143 -42 -52 -38 -58 42 -58
l70 0 43 -60 c23 -33 46 -58 51 -57 6 2 19 32 31 68 l21 64 72 23 c40 13 72
28 72 32 0 5 -20 23 -44 39 -73 51 -76 55 -76 132 0 38 -4 69 -8 69 -5 0 -33
-18 -62 -40z"/>
<path d="M666 2320 c6 -59 6 -60 -30 -96 -39 -39 -39 -54 2 -54 55 0 73 -12
99 -63 25 -50 26 -51 42 -30 9 11 23 34 32 51 13 24 26 31 60 37 24 4 48 10
52 12 5 3 -8 22 -28 43 -37 38 -37 40 -31 94 8 64 5 66 -54 36 -38 -20 -41
-20 -77 -3 -82 37 -75 39 -67 -27z"/>
<path d="M5423 2323 c6 -56 5 -60 -28 -95 -19 -20 -35 -41 -35 -46 0 -4 24
-13 53 -18 49 -8 54 -12 77 -56 14 -27 28 -48 32 -48 4 0 19 22 33 49 23 47
28 50 72 57 27 3 52 9 56 11 4 3 -11 25 -33 49 -26 28 -39 51 -36 62 26 89 19
99 -45 67 l-49 -25 -52 26 -51 26 6 -59z"/>
<path d="M4114 1027 c-39 -18 -81 -39 -93 -47 l-22 -15 37 -83 c41 -92 50 -96
109 -56 21 14 44 23 52 20 21 -8 11 -41 -12 -39 -32 3 -95 -35 -88 -52 7 -19
55 -45 83 -45 36 0 99 39 116 72 32 62 -21 158 -89 158 -18 0 -42 -7 -53 -15
-22 -17 -34 -19 -34 -5 0 5 23 21 51 35 46 24 50 29 44 53 -12 52 -24 54 -101
19z"/>
<path d="M1990 924 c-33 -70 -60 -133 -60 -140 0 -10 158 -94 176 -94 4 0 34
57 34 65 0 3 -20 15 -45 26 -68 30 -59 72 9 44 46 -19 43 -20 61 15 l15 29
-40 21 c-22 11 -40 25 -40 30 0 18 21 21 52 6 46 -24 65 -20 77 14 l10 30 -79
40 c-44 22 -87 40 -95 40 -10 0 -37 -45 -75 -126z"/>
<path d="M2251 914 c-25 -21 -31 -34 -31 -65 0 -34 7 -45 50 -86 27 -25 47
-50 44 -55 -9 -14 -34 -9 -34 7 0 15 -24 28 -75 41 -23 6 -25 3 -25 -29 0 -44
40 -87 98 -106 73 -25 142 16 142 83 0 29 -8 44 -45 79 -59 58 -64 89 -7 47
15 -11 42 -23 60 -26 30 -6 32 -5 32 23 0 40 -25 72 -74 94 -58 26 -98 24
-135 -7z"/>
<path d="M3844 920 c-44 -22 -64 -53 -64 -100 0 -23 5 -30 19 -30 36 0 68 18
75 42 6 22 7 23 21 4 18 -24 14 -41 -30 -122 -34 -62 -37 -110 -9 -121 7 -3
56 9 109 27 100 33 110 44 85 90 -9 16 -15 18 -36 10 -50 -19 -55 -14 -32 36
27 63 21 129 -17 161 -32 28 -68 29 -121 3z"/>
<path d="M2481 849 c-13 -38 -9 -46 29 -54 16 -4 32 -10 35 -15 3 -4 -6 -55
-19 -112 -14 -56 -22 -106 -18 -110 4 -4 26 -10 48 -14 l42 -6 21 92 c11 50
21 98 21 105 0 21 15 26 61 19 l42 -7 -8 -86 c-12 -148 -13 -144 15 -152 14
-4 59 -7 100 -8 92 -1 132 19 160 82 25 54 25 91 0 142 -28 58 -65 75 -189 91
-58 7 -155 24 -216 38 -60 14 -110 26 -111 26 -1 0 -7 -14 -13 -31z"/>
<path d="M3585 856 c-56 -25 -70 -50 -69 -130 1 -145 90 -222 198 -171 69 33
87 134 42 232 -36 76 -98 101 -171 69z"/>
<path d="M3320 807 c-29 -14 -65 -80 -56 -103 7 -18 75 -10 92 12 15 19 34 18
34 -2 0 -24 -19 -55 -67 -107 -36 -39 -44 -53 -41 -80 l3 -32 70 2 c39 1 89 5
113 8 43 6 43 7 40 43 -3 36 -4 37 -40 35 -21 -1 -38 1 -38 4 0 4 12 25 28 47
37 53 38 123 3 160 -20 21 -34 26 -70 26 -25 0 -57 -6 -71 -13z"/>
</g>
</svg>
